<svg width="40" height="40" viewBox="0 0 40 40" fill="none" xmlns="http://www.w3.org/2000/svg">
<path fill-rule="evenodd" clip-rule="evenodd" d="M5 31.25C5 30.5596 5.55964 30 6.25 30H33.75C34.4404 30 35 30.5596 35 31.25C35 31.9404 34.4404 32.5 33.75 32.5H6.25C5.55964 32.5 5 31.9404 5 31.25Z" fill="#687A50"/>
<path fill-rule="evenodd" clip-rule="evenodd" d="M5 23.75C5 23.0596 5.55964 22.5 6.25 22.5H33.75C34.4404 22.5 35 23.0596 35 23.75C35 24.4404 34.4404 25 33.75 25H6.25C5.55964 25 5 24.4404 5 23.75Z" fill="#687A50"/>
<path fill-rule="evenodd" clip-rule="evenodd" d="M5 16.25C5 15.5596 5.55964 15 6.25 15H33.75C34.4404 15 35 15.5596 35 16.25C35 16.9404 34.4404 17.5 33.75 17.5H6.25C5.55964 17.5 5 16.9404 5 16.25Z" fill="#687A50"/>
<path fill-rule="evenodd" clip-rule="evenodd" d="M5 8.75C5 8.05964 5.55964 7.5 6.25 7.5H33.75C34.4404 7.5 35 8.05964 35 8.75C35 9.44036 34.4404 10 33.75 10H6.25C5.55964 10 5 9.44036 5 8.75Z" fill="#687A50"/>
</svg>
