<svg width="40" height="40" viewBox="0 0 40 40" fill="none" xmlns="http://www.w3.org/2000/svg">
<path d="M12.6552 30H21.3417C25.8535 30 28.5634 27.7295 28.5634 24.0088C28.5634 21.2549 26.6591 19.2188 23.8027 18.9258V18.6768C25.8828 18.3252 27.5087 16.3477 27.5087 14.1357C27.5087 10.8838 25.121 8.8623 21.1513 8.8623H12.6552V30ZM15.9365 17.8125V11.6455H20.3896C22.8212 11.6455 24.2421 12.7881 24.2421 14.7363C24.2421 16.7432 22.7333 17.8125 19.833 17.8125H15.9365ZM15.9365 27.2168V20.4053H20.4921C23.583 20.4053 25.2089 21.5625 25.2089 23.7744C25.2089 26.0156 23.6415 27.2168 20.6826 27.2168H15.9365Z" fill="#687A50"/>
<path d="M0 10C0 4.47715 4.47715 0 10 0H30C35.5228 0 40 4.47715 40 10V30C40 35.5228 35.5228 40 30 40H10C4.47715 40 0 35.5228 0 30V10ZM10 2.5C5.85786 2.5 2.5 5.85786 2.5 10V30C2.5 34.1421 5.85786 37.5 10 37.5H30C34.1421 37.5 37.5 34.1421 37.5 30V10C37.5 5.85786 34.1421 2.5 30 2.5H10Z" fill="#687A50"/>
</svg>
