<svg width="16" height="16" viewBox="0 0 16 16" fill="none" xmlns="http://www.w3.org/2000/svg">
<path d="M8.05115 1.99869C8.05684 1.9987 8.06298 1.99871 8.06955 1.99873L8.14035 1.99895C8.96214 2.00197 13.1273 2.03216 14.2503 2.33407C14.9387 2.51871 15.4808 3.06287 15.6648 3.7536C15.7661 4.1331 15.8367 4.6375 15.8859 5.15625L15.8954 5.26016C15.9032 5.34686 15.9103 5.43375 15.9169 5.52032L15.9246 5.62402C15.9904 6.53813 15.998 7.39353 15.9989 7.58068L15.999 7.60593C15.999 7.608 15.999 7.61138 15.999 7.61138V7.62555C15.999 7.62555 15.999 7.62893 15.999 7.631L15.9989 7.65625C15.998 7.85047 15.9898 8.76436 15.9169 9.71667L15.9087 9.82067L15.9 9.92479C15.8505 10.4974 15.7762 11.0659 15.6648 11.4833C15.4808 12.1741 14.9387 12.7183 14.2503 12.9029C13.0898 13.215 8.68109 13.2368 8.06955 13.2383L8.02246 13.2384C8.0186 13.2384 8.0152 13.2384 8.01228 13.2384L7.99307 13.2384C7.99307 13.2384 7.98866 13.2384 7.98573 13.2384L7.92846 13.2383C7.61941 13.2376 6.34057 13.2316 5.0013 13.1856L4.83007 13.1795C4.8015 13.1785 4.77292 13.1774 4.74434 13.1763L4.57291 13.1695L4.40188 13.1623C3.29238 13.1136 2.23452 13.0337 1.74789 12.9029C1.05947 12.7183 0.517371 12.1741 0.333379 11.4833C0.221913 11.0659 0.147602 10.4974 0.0980616 9.92479L0.0893244 9.82067L0.0811165 9.71667C0.0109033 8.79899 0.000711116 7.91699 -0.000768403 7.68026L-0.000945201 7.64637C-0.000957608 7.64332 -0.000967947 7.64051 -0.000976562 7.63795V7.59898C-0.000967947 7.59642 -0.000957608 7.59361 -0.000945201 7.59056L-0.000768403 7.55668C0.000571538 7.34229 0.00905783 6.59866 0.0628044 5.77857L0.0697612 5.6757C0.0709608 5.6585 0.0721808 5.64127 0.0734215 5.62402L0.0811165 5.52032C0.0877404 5.43375 0.0948985 5.34686 0.102634 5.26016L0.112196 5.15625C0.16142 4.6375 0.232046 4.1331 0.333379 3.7536C0.517371 3.06287 1.05947 2.51871 1.74789 2.33407C2.23452 2.20324 3.29238 2.12344 4.40188 2.07476L4.57291 2.06751L4.74434 2.06074C4.77292 2.05965 4.8015 2.05858 4.83007 2.05753L5.0013 2.05144C6.25508 2.0084 7.45591 2.00043 7.85767 1.99895L7.92846 1.99873C7.93504 1.99871 7.94117 1.9987 7.94686 1.99869H8.05115ZM6.39905 5.20988V10.027L10.5558 7.6186L6.39905 5.20988Z" fill="#687A50"/>
</svg>
